<mxfile host="app.diagrams.net" modified="2024-03-21T09:19:05.454Z" agent="Mozilla/5.0 (Windows NT 10.0; Win64; x64) AppleWebKit/537.36 (KHTML, like Gecko) Chrome/122.0.0.0 Safari/537.36" etag="Iv65_2_kY76kFXKyFAor" version="24.0.7" type="github">
  <diagram name="Strona-1" id="Iq1txkXJfPX7Zm2s_XGw">
    <mxGraphModel dx="1320" dy="1111" grid="1" gridSize="10" guides="1" tooltips="1" connect="1" arrows="1" fold="1" page="1" pageScale="1" pageWidth="827" pageHeight="1169" math="0" shadow="0">
      <root>
        <mxCell id="0" />
        <mxCell id="1" parent="0" />
        <mxCell id="YsjO_XKRF-M-CvrAFCbD-1" style="edgeStyle=orthogonalEdgeStyle;rounded=0;orthogonalLoop=1;jettySize=auto;html=1;exitX=1;exitY=0.5;exitDx=0;exitDy=0;entryX=0;entryY=0.5;entryDx=0;entryDy=0;" edge="1" parent="1" source="YsjO_XKRF-M-CvrAFCbD-2" target="YsjO_XKRF-M-CvrAFCbD-8">
          <mxGeometry relative="1" as="geometry" />
        </mxCell>
        <mxCell id="YsjO_XKRF-M-CvrAFCbD-2" value="Выбор фильма" style="rounded=1;whiteSpace=wrap;html=1;arcSize=40;fontColor=#000000;fillColor=#ffffc0;strokeColor=#ff0000;" vertex="1" parent="1">
          <mxGeometry x="294" y="160" width="120" height="40" as="geometry" />
        </mxCell>
        <mxCell id="YsjO_XKRF-M-CvrAFCbD-3" value="админ" style="text;html=1;align=center;verticalAlign=middle;whiteSpace=wrap;rounded=0;" vertex="1" parent="1">
          <mxGeometry x="150" y="50" width="60" height="30" as="geometry" />
        </mxCell>
        <mxCell id="YsjO_XKRF-M-CvrAFCbD-4" value="пользователь" style="text;html=1;align=center;verticalAlign=middle;whiteSpace=wrap;rounded=0;" vertex="1" parent="1">
          <mxGeometry x="324" y="50" width="60" height="30" as="geometry" />
        </mxCell>
        <mxCell id="YsjO_XKRF-M-CvrAFCbD-5" value="модератор&amp;nbsp;" style="text;html=1;align=center;verticalAlign=middle;whiteSpace=wrap;rounded=0;" vertex="1" parent="1">
          <mxGeometry x="510" y="50" width="60" height="30" as="geometry" />
        </mxCell>
        <mxCell id="YsjO_XKRF-M-CvrAFCbD-6" style="edgeStyle=orthogonalEdgeStyle;rounded=0;orthogonalLoop=1;jettySize=auto;html=1;exitX=0.5;exitY=1;exitDx=0;exitDy=0;entryX=0.5;entryY=0;entryDx=0;entryDy=0;" edge="1" parent="1" source="YsjO_XKRF-M-CvrAFCbD-8" target="YsjO_XKRF-M-CvrAFCbD-13">
          <mxGeometry relative="1" as="geometry">
            <mxPoint x="540" y="240" as="targetPoint" />
          </mxGeometry>
        </mxCell>
        <mxCell id="YsjO_XKRF-M-CvrAFCbD-7" value="[&lt;span style=&quot;font-size: 12px; text-wrap: wrap; background-color: rgb(251, 251, 251);&quot;&gt;продаже&lt;/span&gt;&amp;nbsp;возможна]" style="edgeLabel;html=1;align=center;verticalAlign=middle;resizable=0;points=[];" vertex="1" connectable="0" parent="YsjO_XKRF-M-CvrAFCbD-6">
          <mxGeometry x="-0.1935" y="1" relative="1" as="geometry">
            <mxPoint as="offset" />
          </mxGeometry>
        </mxCell>
        <mxCell id="YsjO_XKRF-M-CvrAFCbD-8" value="Определение наличия в продаже" style="rounded=1;whiteSpace=wrap;html=1;arcSize=40;fontColor=#000000;fillColor=#ffffc0;strokeColor=#ff0000;" vertex="1" parent="1">
          <mxGeometry x="480" y="160" width="120" height="40" as="geometry" />
        </mxCell>
        <mxCell id="YsjO_XKRF-M-CvrAFCbD-9" style="edgeStyle=orthogonalEdgeStyle;rounded=0;orthogonalLoop=1;jettySize=auto;html=1;exitX=0.5;exitY=1;exitDx=0;exitDy=0;" edge="1" parent="1" source="YsjO_XKRF-M-CvrAFCbD-13">
          <mxGeometry relative="1" as="geometry">
            <mxPoint x="540" y="310" as="targetPoint" />
          </mxGeometry>
        </mxCell>
        <mxCell id="YsjO_XKRF-M-CvrAFCbD-10" value="[Да]" style="edgeLabel;html=1;align=center;verticalAlign=middle;resizable=0;points=[];" vertex="1" connectable="0" parent="YsjO_XKRF-M-CvrAFCbD-9">
          <mxGeometry x="-0.1524" y="2" relative="1" as="geometry">
            <mxPoint x="-2" as="offset" />
          </mxGeometry>
        </mxCell>
        <mxCell id="YsjO_XKRF-M-CvrAFCbD-11" style="edgeStyle=orthogonalEdgeStyle;rounded=0;orthogonalLoop=1;jettySize=auto;html=1;exitX=1;exitY=0.5;exitDx=0;exitDy=0;entryX=1;entryY=0.5;entryDx=0;entryDy=0;" edge="1" parent="1" source="YsjO_XKRF-M-CvrAFCbD-13" target="YsjO_XKRF-M-CvrAFCbD-18">
          <mxGeometry relative="1" as="geometry">
            <mxPoint x="680" y="800" as="targetPoint" />
            <Array as="points">
              <mxPoint x="690" y="260" />
              <mxPoint x="690" y="935" />
            </Array>
          </mxGeometry>
        </mxCell>
        <mxCell id="YsjO_XKRF-M-CvrAFCbD-12" value="[Нет]" style="edgeLabel;html=1;align=center;verticalAlign=middle;resizable=0;points=[];" vertex="1" connectable="0" parent="YsjO_XKRF-M-CvrAFCbD-11">
          <mxGeometry x="-0.8099" relative="1" as="geometry">
            <mxPoint as="offset" />
          </mxGeometry>
        </mxCell>
        <mxCell id="YsjO_XKRF-M-CvrAFCbD-13" value="" style="shape=rhombus;perimeter=rhombusPerimeter;whiteSpace=wrap;html=1;align=center;" vertex="1" parent="1">
          <mxGeometry x="525" y="250" width="30" height="20" as="geometry" />
        </mxCell>
        <mxCell id="YsjO_XKRF-M-CvrAFCbD-14" style="edgeStyle=orthogonalEdgeStyle;rounded=0;orthogonalLoop=1;jettySize=auto;html=1;exitX=0.5;exitY=1;exitDx=0;exitDy=0;" edge="1" parent="1" source="YsjO_XKRF-M-CvrAFCbD-15" target="YsjO_XKRF-M-CvrAFCbD-17">
          <mxGeometry relative="1" as="geometry" />
        </mxCell>
        <mxCell id="YsjO_XKRF-M-CvrAFCbD-15" value="Создать заказ" style="rounded=1;whiteSpace=wrap;html=1;arcSize=40;fontColor=#000000;fillColor=#ffffc0;strokeColor=#ff0000;" vertex="1" parent="1">
          <mxGeometry x="480" y="310" width="120" height="40" as="geometry" />
        </mxCell>
        <mxCell id="YsjO_XKRF-M-CvrAFCbD-16" style="edgeStyle=orthogonalEdgeStyle;rounded=0;orthogonalLoop=1;jettySize=auto;html=1;exitX=0;exitY=0.5;exitDx=0;exitDy=0;entryX=1;entryY=0.5;entryDx=0;entryDy=0;" edge="1" parent="1" source="YsjO_XKRF-M-CvrAFCbD-17" target="YsjO_XKRF-M-CvrAFCbD-21">
          <mxGeometry relative="1" as="geometry" />
        </mxCell>
        <mxCell id="YsjO_XKRF-M-CvrAFCbD-17" value="Оформить счет" style="rounded=1;whiteSpace=wrap;html=1;arcSize=40;fontColor=#000000;fillColor=#ffffc0;strokeColor=#ff0000;" vertex="1" parent="1">
          <mxGeometry x="480" y="400" width="120" height="40" as="geometry" />
        </mxCell>
        <mxCell id="YsjO_XKRF-M-CvrAFCbD-18" value="" style="ellipse;html=1;shape=endState;fillColor=#000000;strokeColor=#ff8800;" vertex="1" parent="1">
          <mxGeometry x="525" y="920" width="30" height="30" as="geometry" />
        </mxCell>
        <mxCell id="YsjO_XKRF-M-CvrAFCbD-19" style="edgeStyle=orthogonalEdgeStyle;rounded=0;orthogonalLoop=1;jettySize=auto;html=1;exitX=0.5;exitY=1;exitDx=0;exitDy=0;entryX=0.5;entryY=0;entryDx=0;entryDy=0;" edge="1" parent="1" source="YsjO_XKRF-M-CvrAFCbD-21" target="YsjO_XKRF-M-CvrAFCbD-26">
          <mxGeometry relative="1" as="geometry" />
        </mxCell>
        <mxCell id="YsjO_XKRF-M-CvrAFCbD-20" value="[Счет оплачен]" style="edgeLabel;html=1;align=center;verticalAlign=middle;resizable=0;points=[];" vertex="1" connectable="0" parent="YsjO_XKRF-M-CvrAFCbD-19">
          <mxGeometry x="-0.35" relative="1" as="geometry">
            <mxPoint as="offset" />
          </mxGeometry>
        </mxCell>
        <mxCell id="YsjO_XKRF-M-CvrAFCbD-21" value="Оплатить счет" style="rounded=1;whiteSpace=wrap;html=1;arcSize=40;fontColor=#000000;fillColor=#ffffc0;strokeColor=#ff0000;" vertex="1" parent="1">
          <mxGeometry x="294" y="400" width="120" height="40" as="geometry" />
        </mxCell>
        <mxCell id="YsjO_XKRF-M-CvrAFCbD-22" style="edgeStyle=orthogonalEdgeStyle;rounded=0;orthogonalLoop=1;jettySize=auto;html=1;exitX=0;exitY=0.5;exitDx=0;exitDy=0;entryX=0;entryY=0.5;entryDx=0;entryDy=0;" edge="1" parent="1" source="YsjO_XKRF-M-CvrAFCbD-26" target="YsjO_XKRF-M-CvrAFCbD-28">
          <mxGeometry relative="1" as="geometry" />
        </mxCell>
        <mxCell id="YsjO_XKRF-M-CvrAFCbD-23" value="[Нет]" style="edgeLabel;html=1;align=center;verticalAlign=middle;resizable=0;points=[];" vertex="1" connectable="0" parent="YsjO_XKRF-M-CvrAFCbD-22">
          <mxGeometry x="-0.515" y="2" relative="1" as="geometry">
            <mxPoint as="offset" />
          </mxGeometry>
        </mxCell>
        <mxCell id="YsjO_XKRF-M-CvrAFCbD-24" style="edgeStyle=orthogonalEdgeStyle;rounded=0;orthogonalLoop=1;jettySize=auto;html=1;exitX=1;exitY=0.5;exitDx=0;exitDy=0;entryX=0;entryY=0.5;entryDx=0;entryDy=0;" edge="1" parent="1" source="YsjO_XKRF-M-CvrAFCbD-26" target="YsjO_XKRF-M-CvrAFCbD-31">
          <mxGeometry relative="1" as="geometry">
            <mxPoint x="530" y="489.66666666666674" as="targetPoint" />
          </mxGeometry>
        </mxCell>
        <mxCell id="YsjO_XKRF-M-CvrAFCbD-25" value="[Заказ оплачен]" style="edgeLabel;html=1;align=center;verticalAlign=middle;resizable=0;points=[];" vertex="1" connectable="0" parent="YsjO_XKRF-M-CvrAFCbD-24">
          <mxGeometry x="-0.3154" y="-1" relative="1" as="geometry">
            <mxPoint x="13" y="-1" as="offset" />
          </mxGeometry>
        </mxCell>
        <mxCell id="YsjO_XKRF-M-CvrAFCbD-26" value="" style="shape=rhombus;perimeter=rhombusPerimeter;whiteSpace=wrap;html=1;align=center;" vertex="1" parent="1">
          <mxGeometry x="339" y="480" width="30" height="20" as="geometry" />
        </mxCell>
        <mxCell id="YsjO_XKRF-M-CvrAFCbD-27" style="edgeStyle=orthogonalEdgeStyle;rounded=0;orthogonalLoop=1;jettySize=auto;html=1;exitX=0.5;exitY=1;exitDx=0;exitDy=0;" edge="1" parent="1" source="YsjO_XKRF-M-CvrAFCbD-28" target="YsjO_XKRF-M-CvrAFCbD-18">
          <mxGeometry relative="1" as="geometry" />
        </mxCell>
        <mxCell id="YsjO_XKRF-M-CvrAFCbD-28" value="Отмена заказа" style="rounded=1;whiteSpace=wrap;html=1;arcSize=40;fontColor=#000000;fillColor=#ffffc0;strokeColor=#ff0000;" vertex="1" parent="1">
          <mxGeometry x="480" y="820" width="120" height="40" as="geometry" />
        </mxCell>
        <mxCell id="YsjO_XKRF-M-CvrAFCbD-29" style="edgeStyle=orthogonalEdgeStyle;rounded=0;orthogonalLoop=1;jettySize=auto;html=1;exitX=0.5;exitY=1;exitDx=0;exitDy=0;" edge="1" parent="1" source="YsjO_XKRF-M-CvrAFCbD-5" target="YsjO_XKRF-M-CvrAFCbD-5">
          <mxGeometry relative="1" as="geometry" />
        </mxCell>
        <mxCell id="YsjO_XKRF-M-CvrAFCbD-30" style="edgeStyle=orthogonalEdgeStyle;rounded=0;orthogonalLoop=1;jettySize=auto;html=1;exitX=0.5;exitY=1;exitDx=0;exitDy=0;" edge="1" parent="1" source="YsjO_XKRF-M-CvrAFCbD-31">
          <mxGeometry relative="1" as="geometry">
            <mxPoint x="540" y="560" as="targetPoint" />
          </mxGeometry>
        </mxCell>
        <mxCell id="YsjO_XKRF-M-CvrAFCbD-31" value="Выписка квитанции" style="rounded=1;whiteSpace=wrap;html=1;arcSize=40;fontColor=#000000;fillColor=#ffffc0;strokeColor=#ff0000;" vertex="1" parent="1">
          <mxGeometry x="480" y="470" width="120" height="40" as="geometry" />
        </mxCell>
        <mxCell id="YsjO_XKRF-M-CvrAFCbD-32" style="edgeStyle=orthogonalEdgeStyle;rounded=0;orthogonalLoop=1;jettySize=auto;html=1;exitX=0.5;exitY=1;exitDx=0;exitDy=0;entryX=0.5;entryY=0;entryDx=0;entryDy=0;" edge="1" parent="1" source="YsjO_XKRF-M-CvrAFCbD-33" target="YsjO_XKRF-M-CvrAFCbD-35">
          <mxGeometry relative="1" as="geometry" />
        </mxCell>
        <mxCell id="YsjO_XKRF-M-CvrAFCbD-33" value="отправка квитанции&lt;div&gt;на почту&lt;/div&gt;" style="rounded=1;whiteSpace=wrap;html=1;arcSize=40;fontColor=#000000;fillColor=#ffffc0;strokeColor=#ff0000;" vertex="1" parent="1">
          <mxGeometry x="480" y="560" width="120" height="40" as="geometry" />
        </mxCell>
        <mxCell id="YsjO_XKRF-M-CvrAFCbD-34" style="edgeStyle=orthogonalEdgeStyle;rounded=0;orthogonalLoop=1;jettySize=auto;html=1;exitX=0;exitY=0.5;exitDx=0;exitDy=0;" edge="1" parent="1" source="YsjO_XKRF-M-CvrAFCbD-35">
          <mxGeometry relative="1" as="geometry">
            <mxPoint x="240" y="669.6666666666667" as="targetPoint" />
          </mxGeometry>
        </mxCell>
        <mxCell id="YsjO_XKRF-M-CvrAFCbD-35" value="передать заказ" style="rounded=1;whiteSpace=wrap;html=1;arcSize=40;fontColor=#000000;fillColor=#ffffc0;strokeColor=#ff0000;" vertex="1" parent="1">
          <mxGeometry x="480" y="650" width="120" height="40" as="geometry" />
        </mxCell>
        <mxCell id="YsjO_XKRF-M-CvrAFCbD-36" style="edgeStyle=orthogonalEdgeStyle;rounded=0;orthogonalLoop=1;jettySize=auto;html=1;exitX=0.5;exitY=1;exitDx=0;exitDy=0;" edge="1" parent="1" source="YsjO_XKRF-M-CvrAFCbD-37">
          <mxGeometry relative="1" as="geometry">
            <mxPoint x="180" y="760" as="targetPoint" />
          </mxGeometry>
        </mxCell>
        <mxCell id="YsjO_XKRF-M-CvrAFCbD-37" value="Принять заказ" style="rounded=1;whiteSpace=wrap;html=1;arcSize=40;fontColor=#000000;fillColor=#ffffc0;strokeColor=#ff0000;" vertex="1" parent="1">
          <mxGeometry x="120" y="650" width="120" height="40" as="geometry" />
        </mxCell>
        <mxCell id="YsjO_XKRF-M-CvrAFCbD-38" style="edgeStyle=orthogonalEdgeStyle;rounded=0;orthogonalLoop=1;jettySize=auto;html=1;exitX=0.5;exitY=1;exitDx=0;exitDy=0;entryX=0;entryY=0.5;entryDx=0;entryDy=0;" edge="1" parent="1" source="YsjO_XKRF-M-CvrAFCbD-39" target="YsjO_XKRF-M-CvrAFCbD-18">
          <mxGeometry relative="1" as="geometry" />
        </mxCell>
        <mxCell id="YsjO_XKRF-M-CvrAFCbD-39" value="открыть доступ к выбранному фильму" style="rounded=1;whiteSpace=wrap;html=1;arcSize=40;fontColor=#000000;fillColor=#ffffc0;strokeColor=#ff0000;" vertex="1" parent="1">
          <mxGeometry x="120" y="760" width="120" height="40" as="geometry" />
        </mxCell>
        <mxCell id="YsjO_XKRF-M-CvrAFCbD-40" value="" style="endArrow=none;dashed=1;html=1;dashPattern=1 3;strokeWidth=2;rounded=0;" edge="1" parent="1">
          <mxGeometry width="50" height="50" relative="1" as="geometry">
            <mxPoint x="440" y="1000" as="sourcePoint" />
            <mxPoint x="440" y="40" as="targetPoint" />
          </mxGeometry>
        </mxCell>
        <mxCell id="YsjO_XKRF-M-CvrAFCbD-41" value="" style="endArrow=none;dashed=1;html=1;dashPattern=1 3;strokeWidth=2;rounded=0;" edge="1" parent="1">
          <mxGeometry width="50" height="50" relative="1" as="geometry">
            <mxPoint x="270" y="1000" as="sourcePoint" />
            <mxPoint x="270" y="40" as="targetPoint" />
          </mxGeometry>
        </mxCell>
        <mxCell id="YsjO_XKRF-M-CvrAFCbD-42" value="" style="endArrow=none;dashed=1;html=1;dashPattern=1 3;strokeWidth=2;rounded=0;" edge="1" parent="1">
          <mxGeometry width="50" height="50" relative="1" as="geometry">
            <mxPoint x="90" y="1000" as="sourcePoint" />
            <mxPoint x="90" y="40" as="targetPoint" />
          </mxGeometry>
        </mxCell>
      </root>
    </mxGraphModel>
  </diagram>
</mxfile>
